<?xml version="1.0" encoding="UTF-8"?>
<svg version="1.1" xmlns="http://www.w3.org/2000/svg" width="86" height="58">
<path d="M0 0 C28.38 0 56.76 0 86 0 C86 19.14 86 38.28 86 58 C57.62 58 29.24 58 0 58 C0 38.86 0 19.72 0 0 Z " fill="#FCFDFD" transform="translate(0,0)"/>
<path d="M0 0 C4.28161175 3.63848899 6.65912263 7.50240279 8 13 C3.96017001 13.28993995 0.03119278 13.45026463 -4 13 C-6.75 10.5 -6.75 10.5 -9 8 C-11.78776033 7.30305992 -14.20371702 7.37295473 -17 8 C-19.8100346 9.79363911 -21.50940468 11.01880935 -23 14 C-23.3751455 18.97067782 -23.15878799 22.05151502 -20 26 C-16.78946127 28.0300099 -14.11922304 28.29406735 -10.359375 28.4140625 C-9.28945313 28.45273437 -8.21953125 28.49140625 -7.1171875 28.53125 C-5.45042969 28.57765625 -5.45042969 28.57765625 -3.75 28.625 C-2.62335937 28.66367187 -1.49671875 28.70234375 -0.3359375 28.7421875 C2.44254548 28.83637336 5.22102334 28.92199586 8 29 C8 32.3 8 35.6 8 39 C3.66689672 39.116965 -0.6657958 39.1875089 -5 39.25 C-6.22074219 39.28351562 -7.44148438 39.31703125 -8.69921875 39.3515625 C-15.64952539 39.42670095 -21.30864012 39.30677573 -27 35 C-29.05859375 32.9296875 -29.05859375 32.9296875 -30.4375 30.875 C-30.91058594 30.19179688 -31.38367188 29.50859375 -31.87109375 28.8046875 C-35.2508838 23.40170132 -34.4853884 17.19216911 -34 11 C-32.13229009 4.46301533 -26.29071826 -0.14369739 -20.5625 -3.375 C-13.0216035 -5.21424305 -6.67870807 -3.80842717 0 0 Z " fill="#5ECCF4" transform="translate(39,11)"/>
<path d="M0 0 C4.29129925 -0.14677671 8.58194224 -0.23456586 12.875 -0.3125 C14.07898438 -0.35439453 15.28296875 -0.39628906 16.5234375 -0.43945312 C24.46465555 -0.54735011 30.43260803 0.32761522 37 5 C39.25390625 7.3515625 39.25390625 7.3515625 40.5625 9.625 C41.24505859 10.75808594 41.24505859 10.75808594 41.94140625 11.9140625 C44.69215088 17.33434897 45.05425923 23.38630421 43.3515625 29.22265625 C40.70206256 35.09911124 36.47597337 39.17573029 30.796875 42.15625 C27.08004517 43.27752827 23.52714316 43.21421423 19.6875 43.125 C18.94693359 43.11597656 18.20636719 43.10695312 17.44335938 43.09765625 C15.62876533 43.07424213 13.81433929 43.03837615 12 43 C12 39.37 12 35.74 12 32 C13.02480469 31.98582031 14.04960938 31.97164062 15.10546875 31.95703125 C16.46618971 31.91010984 17.82686541 31.86186256 19.1875 31.8125 C20.19780273 31.80379883 20.19780273 31.80379883 21.22851562 31.79492188 C25.07036658 31.62625525 26.89692749 31.07995599 29.9609375 28.703125 C32.9957707 24.67993617 32.54758469 22.9282622 32 18 C31.1883235 15.42969109 30.62501766 14.43008641 28.421875 12.9140625 C24.4100847 11.39993519 20.09117767 11.71590471 15.84375 11.78515625 C13.75 11.734375 13.75 11.734375 10 11 C7.703125 8.09765625 7.703125 8.09765625 6 5 C4.04148656 3.60644236 2.04872887 2.25717453 0 1 C0 0.67 0 0.34 0 0 Z " fill="#4DB94B" transform="translate(37,7)"/>
<path d="M0 0 C3.45098662 1.85330763 6.50428651 3.94968352 9 7 C9 7.66 9 8.32 9 9 C6.14986919 8.6041485 4.39875665 8.34375573 2.1875 6.4375 C-1.06434004 4.30057655 -4.27921418 4.31342643 -8 5 C-10.8100346 6.79363911 -12.50940468 8.01880935 -14 11 C-14.3751455 15.97067782 -14.15878799 19.05151502 -11 23 C-7.67280719 25.12486632 -4.64539047 25.3709528 -0.75 25.625 C0.86648437 25.73714844 0.86648437 25.73714844 2.515625 25.8515625 C3.33546875 25.90054688 4.1553125 25.94953125 5 26 C1.14158619 29.35166361 -1.55797859 29.50916046 -6.52734375 29.35546875 C-11.1128953 28.69625044 -13.83884139 26.32131842 -16.8125 22.9375 C-19.24936348 18.96156485 -19.44976412 15.5726019 -19 11 C-17.23889744 7.01742367 -15.001105 3.88987111 -11.75 1 C-7.76343332 -0.44966061 -4.18829095 -0.6795816 0 0 Z " fill="#48B0E4" transform="translate(30,14)"/>
<path d="M0 0 C3 2.0625 3 2.0625 5 5 C5.1506132 9.29247606 4.66257079 11.22050496 1.875 14.5 C-1.91613014 16.47798094 -3.92797973 16.13111674 -8 15 C-9.9375 13.9375 -9.9375 13.9375 -11 12 C-11.75471698 5.20754717 -11.75471698 5.20754717 -9.4375 1.5 C-6.00863886 -0.61006839 -3.95779649 -0.62491523 0 0 Z " fill="#9BCF84" transform="translate(63,21)"/>
<path d="M0 0 C1.91015625 0.4453125 1.91015625 0.4453125 4.47265625 2.5078125 C6.3464113 6.33679022 6.03978326 8.37865526 4.91015625 12.4453125 C3.18749527 15.31641414 1.80258573 15.47718525 -1.46484375 16.4453125 C-5.08984375 16.4453125 -5.08984375 16.4453125 -8.02734375 14.4453125 C-10.58438424 10.72598088 -10.81452901 8.87394464 -10.08984375 4.4453125 C-7.53315462 0.29069266 -4.61630624 -0.25885829 0 0 Z " fill="#53B6D1" transform="translate(28.08984375,20.5546875)"/>
<path d="M0 0 C5.34740414 1.95385921 8.45618143 4.91236287 11 10 C11.57825746 14.73981526 11.47260429 18.11997823 9.1875 22.375 C4.69230769 27.76923077 4.69230769 27.76923077 1 29 C-0.66267874 29.14220279 -2.3315173 29.22020567 -4 29.25 C-4.86625 29.27578125 -5.7325 29.3015625 -6.625 29.328125 C-9.42903194 28.94072585 -10.26286782 28.17141522 -12 26 C-11.27554688 25.97421875 -10.55109375 25.9484375 -9.8046875 25.921875 C-3.65850466 25.56129894 0.29969803 25.08184118 5 21 C6.88719307 17.22561386 6.49774563 12.5761945 5.25 8.625 C3.64891205 6.54358566 2.44892639 5.97957056 0 5 C-2.24133258 4.71306612 -4.4944319 4.51033409 -6.75 4.375 C-7.92046875 4.30023437 -9.0909375 4.22546875 -10.296875 4.1484375 C-11.18890625 4.09945313 -12.0809375 4.05046875 -13 4 C-9.02250562 -0.15828958 -5.68540228 -0.58339016 0 0 Z " fill="#1AAD4B" transform="translate(63,14)"/>
<path d="M0 0 C0.66 0.33 1.32 0.66 2 1 C1.71125 1.53625 1.4225 2.0725 1.125 2.625 C-0.16711808 5.35280484 -1.08558592 8.12612718 -2 11 C-2.99 10.34 -3.98 9.68 -5 9 C-4.5206753 4.68607774 -3.2542015 2.83430453 0 0 Z " fill="#EDF7FB" transform="translate(20,19)"/>
</svg>
