<?xml version="1.0" encoding="UTF-8"?>
<svg xmlns="http://www.w3.org/2000/svg" xmlns:xlink="http://www.w3.org/1999/xlink" width="30px" height="30px" viewBox="0 0 30 30" version="1.1">
<g id="surface1">
<path style=" stroke:none;fill-rule:nonzero;fill:rgb(0%,0%,0%);fill-opacity:1;" d="M 14.261719 3.441406 C 18.269531 3.542969 20.921875 4.695312 23.761719 7.53125 C 26.066406 11.203125 26.546875 14.589844 25.886719 18.863281 C 25.042969 22.203125 22.949219 24.152344 20.164062 26.066406 C 16.71875 27.542969 13.253906 27.507812 9.742188 26.28125 C 6.699219 24.949219 4.722656 22.722656 3.441406 19.671875 C 2.699219 15.867188 2.804688 12.40625 4.425781 8.851562 C 4.898438 8.183594 5.386719 7.523438 5.902344 6.886719 C 7.363281 7.128906 7.363281 7.128906 8.851562 7.378906 C 8.914062 10.578125 8.914062 10.578125 8.613281 11.769531 C 7.984375 14.3125 8.113281 16.910156 8.882812 19.394531 C 10.109375 21.015625 11.320312 21.734375 13.277344 22.132812 C 15.679688 22.265625 17.222656 22.011719 19.148438 20.53125 C 20.703125 18.460938 21.257812 17.121094 21.085938 14.539062 C 20.765625 12.378906 20.203125 10.976562 18.6875 9.34375 C 17.386719 8.6875 16.160156 8.289062 14.753906 7.867188 C 14.917969 6.734375 15.078125 5.597656 15.246094 4.425781 C 14.921875 4.425781 14.597656 4.425781 14.261719 4.425781 C 14.261719 4.101562 14.261719 3.777344 14.261719 3.441406 Z M 14.261719 3.441406 "/>
<path style=" stroke:none;fill-rule:nonzero;fill:rgb(0%,0%,0%);fill-opacity:1;" d="M 13.769531 4.917969 C 13.742188 5.71875 13.699219 6.515625 13.648438 7.316406 C 13.613281 7.984375 13.613281 7.984375 13.578125 8.664062 C 13.277344 9.835938 13.277344 9.835938 12.339844 10.496094 C 11.136719 10.875 10.519531 10.746094 9.34375 10.328125 C 9.667969 9.191406 9.992188 8.054688 10.328125 6.886719 C 9.191406 6.5625 8.054688 6.234375 6.886719 5.902344 C 6.886719 5.578125 6.886719 5.253906 6.886719 4.917969 C 9.21875 2.734375 11.152344 3.804688 13.769531 4.917969 Z M 13.769531 4.917969 "/>
<path style=" stroke:none;fill-rule:nonzero;fill:rgb(0%,0%,0%);fill-opacity:1;" d="M 0 10.820312 C 0.492188 12.785156 0.492188 12.785156 0.492188 12.785156 Z M 0 10.820312 "/>
</g>
</svg>
