<?xml version="1.0" encoding="UTF-8"?>
<svg xmlns="http://www.w3.org/2000/svg" xmlns:xlink="http://www.w3.org/1999/xlink" width="37px" height="9px" viewBox="0 0 37 9" version="1.1">
<g id="surface1">
<path style=" stroke:none;fill-rule:nonzero;fill:rgb(0.392157%,0%,27.843139%);fill-opacity:1;" d="M 0.105469 6.054688 L 1.171875 5.960938 C 1.222656 6.398438 1.339844 6.753906 1.523438 7.035156 C 1.710938 7.3125 1.996094 7.539062 2.386719 7.710938 C 2.773438 7.882812 3.210938 7.972656 3.699219 7.972656 C 4.128906 7.972656 4.507812 7.90625 4.839844 7.773438 C 5.171875 7.640625 5.417969 7.460938 5.578125 7.238281 C 5.742188 7.007812 5.820312 6.761719 5.820312 6.492188 C 5.820312 6.21875 5.742188 5.976562 5.585938 5.773438 C 5.429688 5.574219 5.175781 5.402344 4.816406 5.261719 C 4.589844 5.167969 4.078125 5.027344 3.292969 4.839844 C 2.511719 4.644531 1.960938 4.464844 1.644531 4.292969 C 1.234375 4.078125 0.929688 3.804688 0.730469 3.480469 C 0.53125 3.160156 0.433594 2.800781 0.433594 2.398438 C 0.433594 1.960938 0.554688 1.550781 0.800781 1.167969 C 1.042969 0.785156 1.402344 0.492188 1.871094 0.296875 C 2.34375 0.101562 2.863281 0 3.441406 0 C 4.074219 0 4.632812 0.105469 5.117188 0.3125 C 5.601562 0.523438 5.972656 0.828125 6.234375 1.230469 C 6.496094 1.636719 6.636719 2.089844 6.65625 2.601562 L 5.570312 2.683594 C 5.511719 2.136719 5.3125 1.71875 4.980469 1.4375 C 4.644531 1.160156 4.144531 1.019531 3.488281 1.019531 C 2.800781 1.019531 2.304688 1.144531 1.992188 1.398438 C 1.679688 1.652344 1.519531 1.964844 1.519531 2.320312 C 1.519531 2.636719 1.632812 2.890625 1.855469 3.09375 C 2.070312 3.296875 2.640625 3.503906 3.5625 3.714844 C 4.480469 3.925781 5.109375 4.113281 5.453125 4.269531 C 5.953125 4.503906 6.316406 4.800781 6.554688 5.160156 C 6.792969 5.519531 6.910156 5.929688 6.910156 6.398438 C 6.910156 6.859375 6.78125 7.296875 6.523438 7.703125 C 6.261719 8.117188 5.886719 8.4375 5.398438 8.660156 C 4.910156 8.890625 4.359375 9 3.75 9 C 2.976562 9 2.328125 8.890625 1.804688 8.660156 C 1.28125 8.429688 0.871094 8.085938 0.574219 7.625 C 0.277344 7.160156 0.121094 6.640625 0.105469 6.054688 Z M 12.363281 8.078125 C 11.976562 8.414062 11.601562 8.648438 11.242188 8.789062 C 10.882812 8.929688 10.496094 9 10.082031 9 C 9.402344 9 8.882812 8.828125 8.515625 8.488281 C 8.148438 8.152344 7.96875 7.71875 7.96875 7.195312 C 7.96875 6.882812 8.035156 6.601562 8.175781 6.347656 C 8.3125 6.089844 8.492188 5.882812 8.714844 5.730469 C 8.941406 5.578125 9.191406 5.460938 9.472656 5.378906 C 9.679688 5.324219 9.988281 5.273438 10.40625 5.21875 C 11.253906 5.117188 11.875 4.996094 12.277344 4.851562 C 12.28125 4.707031 12.285156 4.613281 12.285156 4.570312 C 12.285156 4.140625 12.183594 3.832031 11.984375 3.65625 C 11.71875 3.410156 11.320312 3.292969 10.792969 3.292969 C 10.296875 3.292969 9.933594 3.378906 9.695312 3.550781 C 9.460938 3.730469 9.285156 4.042969 9.171875 4.492188 L 8.148438 4.347656 C 8.242188 3.898438 8.394531 3.539062 8.609375 3.265625 C 8.824219 2.988281 9.132812 2.777344 9.539062 2.628906 C 9.941406 2.480469 10.410156 2.40625 10.941406 2.40625 C 11.472656 2.40625 11.902344 2.46875 12.230469 2.597656 C 12.558594 2.722656 12.804688 2.882812 12.960938 3.074219 C 13.117188 3.265625 13.226562 3.507812 13.285156 3.800781 C 13.324219 3.984375 13.339844 4.3125 13.339844 4.785156 L 13.339844 6.214844 C 13.339844 7.207031 13.363281 7.835938 13.40625 8.097656 C 13.453125 8.359375 13.539062 8.613281 13.671875 8.855469 L 12.574219 8.855469 C 12.464844 8.632812 12.394531 8.375 12.363281 8.078125 M 12.277344 5.691406 C 11.898438 5.847656 11.324219 5.980469 10.5625 6.09375 C 10.128906 6.15625 9.824219 6.226562 9.648438 6.304688 C 9.46875 6.386719 9.328125 6.503906 9.230469 6.652344 C 9.136719 6.808594 9.085938 6.976562 9.085938 7.164062 C 9.085938 7.449219 9.195312 7.6875 9.40625 7.875 C 9.617188 8.066406 9.925781 8.160156 10.335938 8.160156 C 10.738281 8.160156 11.097656 8.070312 11.414062 7.890625 C 11.730469 7.710938 11.960938 7.464844 12.105469 7.152344 C 12.21875 6.910156 12.277344 6.550781 12.277344 6.082031 Z M 19.011719 8.078125 C 18.617188 8.414062 18.242188 8.648438 17.886719 8.789062 C 17.527344 8.929688 17.140625 9 16.726562 9 C 16.046875 9 15.523438 8.828125 15.15625 8.488281 C 14.792969 8.152344 14.609375 7.71875 14.609375 7.195312 C 14.609375 6.882812 14.679688 6.601562 14.816406 6.347656 C 14.953125 6.089844 15.136719 5.882812 15.359375 5.730469 C 15.582031 5.578125 15.835938 5.460938 16.117188 5.378906 C 16.320312 5.324219 16.632812 5.273438 17.050781 5.21875 C 17.898438 5.117188 18.523438 4.996094 18.921875 4.851562 C 18.925781 4.707031 18.925781 4.613281 18.925781 4.570312 C 18.925781 4.140625 18.828125 3.832031 18.628906 3.65625 C 18.359375 3.410156 17.960938 3.292969 17.433594 3.292969 C 16.9375 3.292969 16.574219 3.378906 16.339844 3.550781 C 16.105469 3.730469 15.929688 4.042969 15.816406 4.492188 L 14.789062 4.347656 C 14.882812 3.898438 15.035156 3.539062 15.25 3.265625 C 15.464844 2.988281 15.773438 2.777344 16.179688 2.628906 C 16.582031 2.480469 17.050781 2.40625 17.585938 2.40625 C 18.113281 2.40625 18.542969 2.46875 18.871094 2.597656 C 19.203125 2.722656 19.449219 2.882812 19.605469 3.074219 C 19.757812 3.265625 19.867188 3.507812 19.929688 3.800781 C 19.964844 3.984375 19.980469 4.3125 19.980469 4.785156 L 19.980469 6.214844 C 19.980469 7.207031 20.003906 7.835938 20.046875 8.097656 C 20.09375 8.359375 20.179688 8.613281 20.3125 8.855469 L 19.214844 8.855469 C 19.109375 8.632812 19.039062 8.375 19.011719 8.078125 M 18.921875 5.691406 C 18.539062 5.847656 17.96875 5.980469 17.207031 6.09375 C 16.773438 6.15625 16.46875 6.226562 16.289062 6.304688 C 16.109375 6.386719 15.972656 6.503906 15.878906 6.652344 C 15.777344 6.808594 15.730469 6.976562 15.730469 7.164062 C 15.730469 7.449219 15.835938 7.6875 16.050781 7.875 C 16.261719 8.066406 16.570312 8.160156 16.980469 8.160156 C 17.382812 8.160156 17.742188 8.070312 18.058594 7.890625 C 18.371094 7.710938 18.601562 7.464844 18.75 7.152344 C 18.863281 6.910156 18.921875 6.550781 18.921875 6.082031 Z M 21.191406 6.96875 L 22.226562 6.808594 C 22.285156 7.230469 22.449219 7.554688 22.714844 7.777344 C 22.980469 8.007812 23.351562 8.121094 23.832031 8.121094 C 24.3125 8.121094 24.671875 8.019531 24.90625 7.816406 C 25.136719 7.621094 25.253906 7.382812 25.253906 7.113281 C 25.253906 6.871094 25.152344 6.683594 24.945312 6.542969 C 24.800781 6.449219 24.445312 6.328125 23.875 6.183594 C 23.101562 5.984375 22.566406 5.8125 22.273438 5.667969 C 21.972656 5.523438 21.746094 5.324219 21.59375 5.066406 C 21.441406 4.816406 21.363281 4.535156 21.363281 4.222656 C 21.363281 3.941406 21.429688 3.683594 21.550781 3.441406 C 21.679688 3.199219 21.851562 3.003906 22.070312 2.847656 C 22.230469 2.722656 22.453125 2.617188 22.738281 2.53125 C 23.019531 2.449219 23.324219 2.40625 23.648438 2.40625 C 24.132812 2.40625 24.558594 2.476562 24.925781 2.621094 C 25.292969 2.761719 25.5625 2.953125 25.738281 3.199219 C 25.914062 3.441406 26.035156 3.765625 26.097656 4.175781 L 25.074219 4.320312 C 25.027344 3.992188 24.890625 3.738281 24.667969 3.558594 C 24.445312 3.375 24.128906 3.28125 23.71875 3.28125 C 23.238281 3.28125 22.894531 3.367188 22.6875 3.527344 C 22.480469 3.691406 22.378906 3.878906 22.378906 4.097656 C 22.378906 4.238281 22.421875 4.359375 22.507812 4.472656 C 22.59375 4.585938 22.726562 4.679688 22.910156 4.757812 C 23.015625 4.796875 23.324219 4.886719 23.835938 5.027344 C 24.578125 5.234375 25.097656 5.398438 25.390625 5.527344 C 25.6875 5.65625 25.914062 5.839844 26.082031 6.085938 C 26.25 6.332031 26.332031 6.640625 26.332031 7 C 26.332031 7.355469 26.234375 7.695312 26.027344 8.007812 C 25.824219 8.324219 25.527344 8.570312 25.144531 8.742188 C 24.757812 8.910156 24.324219 9 23.835938 9 C 23.03125 9 22.421875 8.824219 22 8.484375 C 21.574219 8.148438 21.304688 7.640625 21.191406 6.96875 Z M 27.570312 8.855469 L 27.570312 2.550781 L 28.511719 2.550781 L 28.511719 3.507812 C 28.753906 3.058594 28.976562 2.761719 29.183594 2.621094 C 29.386719 2.476562 29.613281 2.40625 29.855469 2.40625 C 30.210938 2.40625 30.570312 2.523438 30.933594 2.75 L 30.574219 3.742188 C 30.316406 3.585938 30.0625 3.511719 29.804688 3.511719 C 29.574219 3.511719 29.367188 3.582031 29.1875 3.722656 C 29.003906 3.863281 28.871094 4.054688 28.792969 4.304688 C 28.679688 4.6875 28.621094 5.101562 28.621094 5.554688 L 28.621094 8.855469 Z M 31.167969 5.699219 C 31.167969 4.535156 31.488281 3.667969 32.125 3.105469 C 32.660156 2.636719 33.308594 2.40625 34.074219 2.40625 C 34.925781 2.40625 35.621094 2.691406 36.164062 3.257812 C 36.703125 3.828125 36.972656 4.609375 36.972656 5.613281 C 36.972656 6.425781 36.851562 7.0625 36.613281 7.527344 C 36.375 7.992188 36.027344 8.355469 35.570312 8.613281 C 35.113281 8.867188 34.613281 9 34.074219 9 C 33.207031 9 32.503906 8.714844 31.972656 8.148438 C 31.4375 7.582031 31.167969 6.769531 31.167969 5.699219 M 32.246094 5.699219 C 32.246094 6.507812 32.421875 7.113281 32.765625 7.515625 C 33.113281 7.917969 33.546875 8.121094 34.074219 8.121094 C 34.59375 8.121094 35.027344 7.917969 35.375 7.515625 C 35.71875 7.109375 35.890625 6.496094 35.890625 5.664062 C 35.890625 4.886719 35.71875 4.292969 35.371094 3.894531 C 35.023438 3.492188 34.589844 3.292969 34.074219 3.292969 C 33.546875 3.292969 33.113281 3.488281 32.765625 3.890625 C 32.421875 4.289062 32.246094 4.894531 32.246094 5.699219 Z M 32.246094 5.699219 "/>
</g>
</svg>
