<?xml version="1.0" encoding="UTF-8"?>
<svg xmlns="http://www.w3.org/2000/svg" xmlns:xlink="http://www.w3.org/1999/xlink" width="79px" height="19px" viewBox="0 0 79 19" version="1.1">
<g id="surface1">
<path style=" stroke:none;fill-rule:nonzero;fill:rgb(0.392157%,0%,27.843139%);fill-opacity:1;" d="M 0.183594 12.785156 L 2.464844 12.585938 C 2.574219 13.507812 2.824219 14.261719 3.214844 14.851562 C 3.613281 15.441406 4.226562 15.914062 5.0625 16.277344 C 5.890625 16.644531 6.824219 16.828125 7.863281 16.828125 C 8.785156 16.828125 9.597656 16.6875 10.304688 16.414062 C 11.011719 16.132812 11.539062 15.753906 11.882812 15.277344 C 12.230469 14.796875 12.402344 14.273438 12.402344 13.707031 C 12.402344 13.125 12.234375 12.621094 11.902344 12.191406 C 11.566406 11.765625 11.019531 11.402344 10.257812 11.105469 C 9.765625 10.914062 8.679688 10.617188 7 10.214844 C 5.324219 9.808594 4.148438 9.421875 3.476562 9.0625 C 2.601562 8.605469 1.949219 8.035156 1.519531 7.351562 C 1.097656 6.671875 0.882812 5.910156 0.882812 5.066406 C 0.882812 4.140625 1.144531 3.273438 1.667969 2.464844 C 2.191406 1.65625 2.953125 1.042969 3.960938 0.625 C 4.964844 0.210938 6.082031 0 7.3125 0 C 8.667969 0 9.863281 0.21875 10.898438 0.65625 C 11.929688 1.101562 12.726562 1.746094 13.285156 2.597656 C 13.839844 3.453125 14.140625 4.414062 14.183594 5.496094 L 11.867188 5.667969 C 11.738281 4.507812 11.316406 3.625 10.601562 3.035156 C 9.882812 2.445312 8.816406 2.148438 7.414062 2.148438 C 5.949219 2.148438 4.882812 2.414062 4.214844 2.953125 C 3.546875 3.492188 3.210938 4.144531 3.210938 4.902344 C 3.210938 5.5625 3.449219 6.105469 3.921875 6.53125 C 4.386719 6.960938 5.605469 7.394531 7.570312 7.839844 C 9.535156 8.289062 10.882812 8.679688 11.613281 9.015625 C 12.679688 9.511719 13.460938 10.136719 13.96875 10.890625 C 14.476562 11.648438 14.730469 12.519531 14.730469 13.503906 C 14.730469 14.480469 14.453125 15.402344 13.898438 16.265625 C 13.339844 17.132812 12.542969 17.808594 11.496094 18.285156 C 10.453125 18.765625 9.277344 19.003906 7.976562 19.003906 C 6.320312 19.003906 4.9375 18.765625 3.820312 18.28125 C 2.699219 17.792969 1.824219 17.066406 1.1875 16.09375 C 0.550781 15.117188 0.21875 14.015625 0.183594 12.785156 Z M 26.386719 17.054688 C 25.554688 17.761719 24.757812 18.261719 23.988281 18.558594 C 23.21875 18.847656 22.394531 18.996094 21.511719 18.996094 C 20.058594 18.996094 18.941406 18.636719 18.164062 17.921875 C 17.378906 17.207031 16.988281 16.292969 16.988281 15.1875 C 16.988281 14.53125 17.136719 13.933594 17.433594 13.398438 C 17.722656 12.855469 18.109375 12.421875 18.589844 12.097656 C 19.070312 11.773438 19.605469 11.527344 20.203125 11.359375 C 20.644531 11.242188 21.308594 11.128906 22.199219 11.019531 C 24.011719 10.804688 25.34375 10.546875 26.199219 10.246094 C 26.210938 9.9375 26.214844 9.738281 26.214844 9.652344 C 26.214844 8.738281 26 8.089844 25.574219 7.714844 C 25.003906 7.203125 24.152344 6.949219 23.023438 6.949219 C 21.96875 6.949219 21.1875 7.132812 20.683594 7.5 C 20.179688 7.875 19.808594 8.535156 19.566406 9.480469 L 17.375 9.175781 C 17.574219 8.230469 17.902344 7.46875 18.363281 6.890625 C 18.816406 6.308594 19.476562 5.863281 20.34375 5.550781 C 21.207031 5.234375 22.207031 5.078125 23.34375 5.078125 C 24.476562 5.078125 25.394531 5.210938 26.101562 5.480469 C 26.804688 5.746094 27.324219 6.082031 27.660156 6.492188 C 27.992188 6.894531 28.226562 7.40625 28.355469 8.027344 C 28.433594 8.410156 28.472656 9.101562 28.472656 10.105469 L 28.472656 13.117188 C 28.472656 15.214844 28.519531 16.539062 28.613281 17.09375 C 28.710938 17.648438 28.898438 18.179688 29.179688 18.691406 L 26.835938 18.691406 C 26.601562 18.226562 26.453125 17.679688 26.386719 17.054688 M 26.199219 12.011719 C 25.386719 12.347656 24.164062 12.628906 22.53125 12.863281 C 21.609375 12.996094 20.960938 13.148438 20.578125 13.3125 C 20.195312 13.484375 19.898438 13.726562 19.691406 14.046875 C 19.488281 14.371094 19.382812 14.730469 19.382812 15.121094 C 19.382812 15.722656 19.609375 16.226562 20.0625 16.628906 C 20.515625 17.027344 21.175781 17.230469 22.046875 17.230469 C 22.914062 17.230469 23.679688 17.039062 24.355469 16.660156 C 25.027344 16.277344 25.523438 15.757812 25.835938 15.097656 C 26.078125 14.585938 26.199219 13.832031 26.199219 12.835938 Z M 40.589844 17.054688 C 39.753906 17.761719 38.953125 18.261719 38.1875 18.558594 C 37.417969 18.847656 36.59375 18.996094 35.710938 18.996094 C 34.257812 18.996094 33.140625 18.636719 32.355469 17.921875 C 31.578125 17.207031 31.1875 16.292969 31.1875 15.1875 C 31.1875 14.53125 31.332031 13.933594 31.628906 13.398438 C 31.921875 12.855469 32.308594 12.421875 32.785156 12.097656 C 33.265625 11.773438 33.804688 11.527344 34.40625 11.359375 C 34.84375 11.242188 35.507812 11.128906 36.398438 11.019531 C 38.210938 10.804688 39.546875 10.546875 40.398438 10.246094 C 40.40625 9.9375 40.410156 9.738281 40.410156 9.652344 C 40.410156 8.738281 40.199219 8.089844 39.773438 7.714844 C 39.199219 7.203125 38.347656 6.949219 37.21875 6.949219 C 36.164062 6.949219 35.386719 7.132812 34.882812 7.5 C 34.382812 7.875 34.007812 8.535156 33.765625 9.480469 L 31.570312 9.175781 C 31.769531 8.230469 32.097656 7.46875 32.554688 6.890625 C 33.015625 6.308594 33.675781 5.863281 34.542969 5.550781 C 35.402344 5.234375 36.40625 5.078125 37.542969 5.078125 C 38.675781 5.078125 39.59375 5.210938 40.296875 5.480469 C 41.003906 5.746094 41.527344 6.082031 41.859375 6.492188 C 42.191406 6.894531 42.421875 7.40625 42.554688 8.027344 C 42.628906 8.410156 42.667969 9.101562 42.667969 10.105469 L 42.667969 13.117188 C 42.667969 15.214844 42.714844 16.539062 42.808594 17.09375 C 42.90625 17.648438 43.09375 18.179688 43.375 18.691406 L 41.03125 18.691406 C 40.800781 18.226562 40.652344 17.679688 40.589844 17.054688 M 40.398438 12.011719 C 39.585938 12.347656 38.363281 12.628906 36.734375 12.863281 C 35.808594 12.996094 35.15625 13.148438 34.777344 13.3125 C 34.394531 13.484375 34.101562 13.726562 33.894531 14.046875 C 33.683594 14.371094 33.582031 14.730469 33.582031 15.121094 C 33.582031 15.722656 33.808594 16.226562 34.261719 16.628906 C 34.714844 17.027344 35.378906 17.230469 36.25 17.230469 C 37.113281 17.230469 37.882812 17.039062 38.554688 16.660156 C 39.226562 16.277344 39.71875 15.757812 40.035156 15.097656 C 40.277344 14.585938 40.398438 13.832031 40.398438 12.835938 Z M 45.25 14.714844 L 47.464844 14.371094 C 47.59375 15.261719 47.9375 15.945312 48.507812 16.421875 C 49.074219 16.902344 49.871094 17.140625 50.898438 17.140625 C 51.925781 17.140625 52.6875 16.929688 53.191406 16.503906 C 53.683594 16.085938 53.933594 15.589844 53.933594 15.019531 C 53.933594 14.507812 53.714844 14.109375 53.277344 13.816406 C 52.96875 13.617188 52.203125 13.363281 50.984375 13.054688 C 49.335938 12.636719 48.195312 12.273438 47.5625 11.96875 C 46.925781 11.664062 46.441406 11.238281 46.113281 10.699219 C 45.785156 10.164062 45.621094 9.570312 45.621094 8.914062 C 45.621094 8.324219 45.757812 7.773438 46.023438 7.265625 C 46.296875 6.757812 46.664062 6.339844 47.128906 6.007812 C 47.476562 5.746094 47.953125 5.527344 48.558594 5.347656 C 49.160156 5.167969 49.808594 5.078125 50.5 5.078125 C 51.539062 5.078125 52.449219 5.230469 53.230469 5.53125 C 54.015625 5.832031 54.597656 6.238281 54.972656 6.753906 C 55.34375 7.265625 55.601562 7.953125 55.742188 8.816406 L 53.550781 9.117188 C 53.449219 8.429688 53.160156 7.894531 52.683594 7.511719 C 52.207031 7.125 51.53125 6.929688 50.65625 6.929688 C 49.628906 6.929688 48.890625 7.105469 48.449219 7.445312 C 48.011719 7.792969 47.792969 8.191406 47.792969 8.652344 C 47.792969 8.945312 47.882812 9.207031 48.0625 9.445312 C 48.246094 9.683594 48.535156 9.882812 48.925781 10.042969 C 49.152344 10.125 49.8125 10.320312 50.90625 10.617188 C 52.492188 11.046875 53.601562 11.398438 54.230469 11.667969 C 54.859375 11.9375 55.347656 12.332031 55.707031 12.851562 C 56.0625 13.371094 56.242188 14.015625 56.242188 14.78125 C 56.242188 15.53125 56.027344 16.242188 55.589844 16.90625 C 55.15625 17.570312 54.523438 18.089844 53.699219 18.453125 C 52.878906 18.8125 51.945312 18.996094 50.90625 18.996094 C 49.1875 18.996094 47.878906 18.632812 46.976562 17.914062 C 46.070312 17.199219 45.496094 16.132812 45.25 14.714844 Z M 58.886719 18.691406 L 58.886719 5.382812 L 60.902344 5.382812 L 60.902344 7.402344 C 61.417969 6.453125 61.894531 5.832031 62.332031 5.53125 C 62.769531 5.230469 63.25 5.078125 63.773438 5.078125 C 64.53125 5.078125 65.296875 5.324219 66.078125 5.808594 L 65.308594 7.898438 C 64.757812 7.574219 64.210938 7.410156 63.664062 7.410156 C 63.171875 7.410156 62.730469 7.558594 62.339844 7.855469 C 61.949219 8.152344 61.667969 8.5625 61.5 9.089844 C 61.253906 9.894531 61.128906 10.773438 61.128906 11.722656 L 61.128906 18.691406 Z M 66.578125 12.035156 C 66.578125 9.570312 67.257812 7.746094 68.621094 6.558594 C 69.761719 5.570312 71.148438 5.078125 72.789062 5.078125 C 74.605469 5.078125 76.09375 5.679688 77.25 6.875 C 78.402344 8.078125 78.980469 9.734375 78.980469 11.847656 C 78.980469 13.5625 78.722656 14.910156 78.214844 15.894531 C 77.703125 16.875 76.960938 17.636719 75.984375 18.179688 C 75.007812 18.722656 73.9375 18.996094 72.789062 18.996094 C 70.929688 18.996094 69.433594 18.398438 68.292969 17.203125 C 67.148438 16.007812 66.578125 14.289062 66.578125 12.035156 M 68.882812 12.035156 C 68.882812 13.742188 69.253906 15.019531 69.992188 15.867188 C 70.734375 16.71875 71.660156 17.140625 72.789062 17.140625 C 73.898438 17.140625 74.828125 16.714844 75.566406 15.863281 C 76.304688 15.011719 76.671875 13.710938 76.671875 11.960938 C 76.671875 10.3125 76.300781 9.066406 75.558594 8.222656 C 74.8125 7.371094 73.890625 6.949219 72.789062 6.949219 C 71.660156 6.949219 70.734375 7.367188 69.992188 8.210938 C 69.253906 9.058594 68.882812 10.332031 68.882812 12.035156 Z M 68.882812 12.035156 "/>
</g>
</svg>
