<?xml version="1.0" encoding="UTF-8"?>
<svg xmlns="http://www.w3.org/2000/svg" xmlns:xlink="http://www.w3.org/1999/xlink" width="44px" height="30px" viewBox="0 0 44 30" version="1.1">
<g id="surface1">
<path style=" stroke:none;fill-rule:nonzero;fill:rgb(98.823529%,99.215686%,99.215686%);fill-opacity:1;" d="M 0 0 C 14.519531 0 29.039062 0 44 0 C 44 9.898438 44 19.800781 44 30 C 29.480469 30 14.960938 30 0 30 C 0 20.101562 0 10.199219 0 0 Z M 0 0 "/>
<path style=" stroke:none;fill-rule:nonzero;fill:rgb(36.862746%,80.000001%,95.686275%);fill-opacity:1;" d="M 19.953125 5.691406 C 22.144531 7.570312 23.359375 9.570312 24.046875 12.414062 C 21.980469 12.5625 19.96875 12.648438 17.90625 12.414062 C 16.5 11.121094 16.5 11.121094 15.347656 9.828125 C 13.921875 9.46875 12.6875 9.503906 11.253906 9.828125 C 9.816406 10.753906 8.949219 11.390625 8.1875 12.929688 C 7.992188 15.503906 8.105469 17.09375 9.722656 19.136719 C 11.363281 20.1875 12.730469 20.324219 14.652344 20.386719 C 15.199219 20.40625 15.75 20.425781 16.3125 20.445312 C 17.164062 20.472656 17.164062 20.472656 18.035156 20.496094 C 18.609375 20.515625 19.1875 20.535156 19.78125 20.554688 C 21.203125 20.605469 22.625 20.648438 24.046875 20.691406 C 24.046875 22.398438 24.046875 24.101562 24.046875 25.863281 C 21.828125 25.921875 19.613281 25.960938 17.394531 25.992188 C 16.769531 26.007812 16.144531 26.027344 15.503906 26.042969 C 11.945312 26.082031 9.050781 26.019531 6.140625 23.792969 C 5.085938 22.722656 5.085938 22.722656 4.378906 21.660156 C 4.140625 21.304688 3.898438 20.953125 3.648438 20.589844 C 1.917969 17.792969 2.308594 14.582031 2.558594 11.378906 C 3.515625 8 6.503906 5.617188 9.433594 3.945312 C 13.292969 2.992188 16.535156 3.71875 19.953125 5.691406 Z M 19.953125 5.691406 "/>
<path style=" stroke:none;fill-rule:nonzero;fill:rgb(30.19608%,72.549021%,29.411766%);fill-opacity:1;" d="M 18.929688 3.621094 C 21.125 3.542969 23.320312 3.5 25.515625 3.460938 C 26.132812 3.4375 26.75 3.414062 27.382812 3.394531 C 31.445312 3.335938 34.5 3.789062 37.859375 6.207031 C 39.011719 7.421875 39.011719 7.421875 39.683594 8.597656 C 40.03125 9.183594 40.03125 9.183594 40.386719 9.78125 C 41.796875 12.585938 41.980469 15.71875 41.109375 18.734375 C 39.753906 21.777344 37.59375 23.882812 34.6875 25.425781 C 32.785156 26.003906 30.96875 25.972656 29.003906 25.925781 C 28.625 25.921875 28.246094 25.917969 27.855469 25.914062 C 26.925781 25.902344 25.996094 25.882812 25.070312 25.863281 C 25.070312 23.984375 25.070312 22.105469 25.070312 20.171875 C 25.59375 20.164062 26.117188 20.15625 26.660156 20.148438 C 27.355469 20.125 28.050781 20.101562 28.746094 20.074219 C 29.265625 20.070312 29.265625 20.070312 29.792969 20.066406 C 31.757812 19.980469 32.691406 19.695312 34.257812 18.46875 C 35.8125 16.386719 35.582031 15.480469 35.300781 12.929688 C 34.886719 11.601562 34.597656 11.085938 33.472656 10.300781 C 31.417969 9.515625 29.210938 9.679688 27.035156 9.714844 C 25.964844 9.691406 25.964844 9.691406 24.046875 9.308594 C 22.871094 7.808594 22.871094 7.808594 22 6.207031 C 20.996094 5.484375 19.976562 4.789062 18.929688 4.136719 C 18.929688 3.96875 18.929688 3.796875 18.929688 3.621094 Z M 18.929688 3.621094 "/>
<path style=" stroke:none;fill-rule:nonzero;fill:rgb(28.235295%,69.01961%,89.411765%);fill-opacity:1;" d="M 15.347656 7.242188 C 17.113281 8.199219 18.675781 9.285156 19.953125 10.863281 C 19.953125 11.203125 19.953125 11.542969 19.953125 11.898438 C 18.496094 11.691406 17.597656 11.558594 16.46875 10.570312 C 14.804688 9.464844 13.160156 9.472656 11.253906 9.828125 C 9.816406 10.753906 8.949219 11.390625 8.1875 12.929688 C 7.992188 15.503906 8.105469 17.09375 9.722656 19.136719 C 11.421875 20.238281 12.972656 20.363281 14.964844 20.496094 C 15.792969 20.554688 15.792969 20.554688 16.636719 20.613281 C 17.054688 20.636719 17.476562 20.664062 17.90625 20.691406 C 15.933594 22.421875 14.550781 22.503906 12.007812 22.425781 C 9.664062 22.085938 8.269531 20.855469 6.746094 19.105469 C 5.5 17.050781 5.398438 15.296875 5.628906 12.929688 C 6.527344 10.871094 7.675781 9.253906 9.335938 7.757812 C 11.375 7.007812 13.207031 6.890625 15.347656 7.242188 Z M 15.347656 7.242188 "/>
<path style=" stroke:none;fill-rule:nonzero;fill:rgb(60.784316%,81.176472%,51.764709%);fill-opacity:1;" d="M 32.234375 10.863281 C 33.765625 11.929688 33.765625 11.929688 34.789062 13.449219 C 34.867188 15.667969 34.617188 16.664062 33.191406 18.363281 C 31.253906 19.386719 30.222656 19.207031 28.140625 18.621094 C 27.148438 18.070312 27.148438 18.070312 26.605469 17.070312 C 26.21875 13.554688 26.21875 13.554688 27.402344 11.636719 C 29.160156 10.546875 30.207031 10.539062 32.234375 10.863281 Z M 32.234375 10.863281 "/>
<path style=" stroke:none;fill-rule:nonzero;fill:rgb(32.549021%,71.372551%,81.960785%);fill-opacity:1;" d="M 14.371094 10.632812 C 15.347656 10.863281 15.347656 10.863281 16.660156 11.929688 C 17.617188 13.910156 17.460938 14.964844 16.882812 17.070312 C 16.003906 18.554688 15.292969 18.636719 13.621094 19.136719 C 11.765625 19.136719 11.765625 19.136719 10.265625 18.101562 C 8.957031 16.179688 8.839844 15.222656 9.210938 12.929688 C 10.515625 10.78125 12.007812 10.496094 14.371094 10.632812 Z M 14.371094 10.632812 "/>
<path style=" stroke:none;fill-rule:nonzero;fill:rgb(10.196079%,67.843139%,29.411766%);fill-opacity:1;" d="M 32.234375 7.242188 C 34.96875 8.253906 36.558594 9.78125 37.859375 12.414062 C 38.15625 14.867188 38.101562 16.613281 36.933594 18.816406 C 34.632812 21.605469 34.632812 21.605469 32.746094 22.242188 C 31.894531 22.316406 31.039062 22.355469 30.1875 22.371094 C 29.742188 22.382812 29.300781 22.398438 28.84375 22.410156 C 27.410156 22.210938 26.980469 21.8125 26.09375 20.691406 C 26.464844 20.675781 26.835938 20.664062 27.214844 20.648438 C 30.359375 20.460938 32.386719 20.214844 34.789062 18.101562 C 35.757812 16.152344 35.558594 13.746094 34.917969 11.703125 C 34.097656 10.625 33.484375 10.335938 32.234375 9.828125 C 31.085938 9.679688 29.933594 9.574219 28.777344 9.503906 C 28.179688 9.464844 27.582031 9.425781 26.964844 9.386719 C 26.507812 9.363281 26.050781 9.335938 25.582031 9.308594 C 27.617188 7.160156 29.324219 6.941406 32.234375 7.242188 Z M 32.234375 7.242188 "/>
<path style=" stroke:none;fill-rule:nonzero;fill:rgb(92.941177%,96.862745%,98.431373%);fill-opacity:1;" d="M 10.234375 9.828125 C 10.570312 10 10.90625 10.167969 11.253906 10.34375 C 11.109375 10.621094 10.960938 10.898438 10.808594 11.183594 C 10.148438 12.597656 9.675781 14.03125 9.210938 15.515625 C 8.703125 15.175781 8.195312 14.835938 7.675781 14.484375 C 7.917969 12.25 8.566406 11.292969 10.234375 9.828125 Z M 10.234375 9.828125 "/>
</g>
</svg>
